<svg xmlns="http://www.w3.org/2000/svg" viewBox="0 0 200 228.05" width="200" height="228.05" role="img" aria-label="Supreme Real Estate mark"><title>Supreme Real Estate mark</title><style>.sre-roof{fill:var(--supreme-roof, #9D8574)}.sre-s{fill:var(--supreme-s, #33494A)}.sre-word{fill:var(--supreme-word, #33494A)}.sre-tag{fill:var(--supreme-tag, #8A8B86)}</style><defs><linearGradient id="sre-grad-roof-mark-main" gradientUnits="userSpaceOnUse" x1="94" y1="0" x2="148" y2="0"><stop offset="0" style="stop-color:var(--supreme-s, #33494A)"/><stop offset="1" style="stop-color:var(--supreme-roof, #9D8574)"/></linearGradient></defs><g transform="translate(0 0) scale(1)"><path class="sre-roof" d="M100 0L200 57.74L200 91.74L100 34L0 91.74L0 57.74Z"/><path fill="url(#sre-grad-roof-mark-main)" d="M100 56L200 113.74L200 147.74L100 90L72.62 105.81Q70.89 106.81 72.62 107.81L117.21 133.55Q125 138.05 125 147.05L125 163.05Q125 172.05 117.21 167.55L13.73 107.81Q12 106.81 13.73 105.81Z"/><path class="sre-s" d="M0 121.88L117.21 189.55Q125 194.05 125 203.05L125 219.05Q125 228.05 117.21 223.55L0 155.88Z"/></g></svg>